/* XPM */
const char * down_xpm[] = {
"24 24 210 2",
"  	c None",
". 	c #000C9A",
"+ 	c #0720B2",
"@ 	c #0F28B8",
"# 	c #0D26B8",
"$ 	c #0011A4",
"% 	c #2C43BB",
"& 	c #C2D4FC",
"* 	c #D5E1FB",
"= 	c #D4E1FB",
"- 	c #778CDE",
"; 	c #000A9E",
"> 	c #3553C4",
", 	c #CCE3FF",
"' 	c #D6E8FF",
") 	c #D7E9FF",
"! 	c #889FE7",
"~ 	c #000EA4",
"{ 	c #3156C6",
"] 	c #BFDBFF",
"^ 	c #C9DFFF",
"/ 	c #C8DFFF",
"( 	c #C9E0FF",
"_ 	c #7E9AE7",
": 	c #0012A6",
"< 	c #2F59C8",
"[ 	c #B2D4FF",
"} 	c #BBD7FF",
"| 	c #BCD8FF",
"1 	c #7596E8",
"2 	c #0017A8",
"3 	c #2B5BCA",
"4 	c #A4CDFF",
"5 	c #ACCEFF",
"6 	c #ACCEFE",
"7 	c #AED0FF",
"8 	c #7095E9",
"9 	c #001BAA",
"0 	c #2B5FCC",
"a 	c #99C6FF",
"b 	c #9EC7FF",
"c 	c #9FC7FF",
"d 	c #9DC6FE",
"e 	c #96C0FE",
"f 	c #679BFA",
"g 	c #2963F4",
"h 	c #0137DE",
"i 	c #0028AE",
"j 	c #2B61CD",
"k 	c #8DBFFF",
"l 	c #91BEFF",
"m 	c #90BEFF",
"n 	c #91BFFF",
"o 	c #93C0FF",
"p 	c #7BB2FE",
"q 	c #4F95FD",
"r 	c #1165F9",
"s 	c #004FF5",
"t 	c #0049F3",
"u 	c #013EE1",
"v 	c #002DB0",
"w 	c #2B64CF",
"x 	c #82B8FF",
"y 	c #82B6FF",
"z 	c #85B8FF",
"A 	c #79B1FF",
"B 	c #4B98FF",
"C 	c #2181FE",
"D 	c #066DFD",
"E 	c #0666FA",
"F 	c #065EF8",
"G 	c #0554F6",
"H 	c #0246E3",
"I 	c #0032B3",
"J 	c #0033AA",
"K 	c #2764D1",
"L 	c #69ACFF",
"M 	c #71ADFF",
"N 	c #6FABFF",
"O 	c #59A0FF",
"P 	c #3890FF",
"Q 	c #2887FF",
"R 	c #1E7FFF",
"S 	c #1279FF",
"T 	c #0B70FD",
"U 	c #0767FA",
"V 	c #065DF8",
"W 	c #044DE5",
"X 	c #0036B4",
"Y 	c #0139AE",
"Z 	c #0E49BA",
"` 	c #1853C1",
" .	c #1954C2",
"..	c #377BDF",
"+.	c #5AA7FF",
"@.	c #53A2FF",
"#.	c #4D9EFF",
"$.	c #4799FF",
"%.	c #3F94FF",
"&.	c #368EFF",
"*.	c #2A88FF",
"=.	c #1E80FE",
"-.	c #1178FF",
";.	c #0A6FFD",
">.	c #0764FA",
",.	c #0556ED",
"'.	c #013FC4",
").	c #013ABD",
"!.	c #0037BD",
"~.	c #0037B7",
"{.	c #0037AD",
"].	c #1959C5",
"^.	c #569DF3",
"/.	c #74BAFF",
"(.	c #6EB3FF",
"_.	c #68AFFE",
":.	c #65ADFF",
"<.	c #5EA8FF",
"[.	c #56A3FF",
"}.	c #4D9DFF",
"|.	c #4295FF",
"1.	c #368FFF",
"2.	c #2A87FF",
"3.	c #1C7FFE",
"4.	c #0E76FF",
"5.	c #096BFC",
"6.	c #0760FA",
"7.	c #0556F9",
"8.	c #034AF9",
"9.	c #003DE6",
"0.	c #0039C0",
"a.	c #0D4EBB",
"b.	c #4F90E5",
"c.	c #83C1FF",
"d.	c #79B9FF",
"e.	c #74B6FE",
"f.	c #6DB1FF",
"g.	c #64ACFF",
"h.	c #5AA5FF",
"i.	c #4E9EFF",
"j.	c #348DFF",
"k.	c #2685FF",
"l.	c #177CFF",
"m.	c #0A72FE",
"n.	c #0866FA",
"o.	c #065CFB",
"p.	c #034ADE",
"q.	c #0040B9",
"r.	c #064BB7",
"s.	c #4D8CDE",
"t.	c #8CC7FF",
"u.	c #84BFFF",
"v.	c #7BBAFF",
"w.	c #72B4FF",
"x.	c #66ADFF",
"y.	c #4C9CFF",
"z.	c #3D93FF",
"A.	c #2F8BFF",
"B.	c #1F81FE",
"C.	c #1177FE",
"D.	c #086DFE",
"E.	c #0455DB",
"F.	c #0045B7",
"G.	c #0049B7",
"H.	c #5391DF",
"I.	c #8EC6FD",
"J.	c #89C3FF",
"K.	c #7DBBFE",
"L.	c #71B3FF",
"M.	c #64ABFF",
"N.	c #55A2FF",
"O.	c #4699FF",
"P.	c #378FFE",
"Q.	c #2786FF",
"R.	c #167BFD",
"S.	c #0660DF",
"T.	c #0048B7",
"U.	c #0045B5",
"V.	c #4687D9",
"W.	c #8DC4FB",
"X.	c #8CC5FF",
"Y.	c #7BBAFE",
"Z.	c #6CB1FF",
"`.	c #5DA7FF",
" +	c #4D9EFE",
".+	c #3E95FF",
"++	c #2B87FB",
"@+	c #0D65D9",
"#+	c #004AB5",
"$+	c #2A74CF",
"%+	c #83BDF8",
"&+	c #88C3FF",
"*+	c #73B5FE",
"=+	c #63ABFE",
"-+	c #55A3FF",
";+	c #3C90F8",
">+	c #0E62CF",
",+	c #004DB7",
"'+	c #1B69C9",
")+	c #76B4F6",
"!+	c #7AB9FF",
"~+	c #68AFFF",
"{+	c #4D9AF6",
"]+	c #0D60C9",
"^+	c #1161C5",
"/+	c #68AAF5",
"(+	c #5BA2F5",
"_+	c #0B5EC5",
":+	c #0C5CC3",
"<+	c #0B5CC3",
"                                                ",
"                                                ",
"          . + @ @ @ @ @ @ @ @ @ # $             ",
"          % & * * * * * * * * * = - ;           ",
"          > , ' ' ' ' ' ' ' ' ' ) ! ~           ",
"          { ] ^ / / / / / / / / ( _ :           ",
"          < [ } } } } } } } } } | 1 2           ",
"          3 4 5 5 5 5 5 5 5 6 7 [ 8 9           ",
"          0 a b b b b b c d e f g h i           ",
"          j k l m m n o p q r s t u v           ",
"          w x y y z A B C D E F G H I           ",
"        J K L M N O P Q R S T U V W X           ",
"  Y Z `  ...+.@.#.$.%.&.*.=.-.;.>.,.'.).!.~.{.  ",
"    ].^./.(._.:.<.[.}.|.1.2.3.4.5.6.7.8.9.0.    ",
"      a.b.c.d.e.f.g.h.i.|.j.k.l.m.n.o.p.q.      ",
"        r.s.t.u.v.w.x.h.y.z.A.B.C.D.E.F.        ",
"          G.H.I.J.K.L.M.N.O.P.Q.R.S.T.          ",
"            U.V.W.X.Y.Z.`. +.+++@+#+            ",
"              G.$+%+&+*+=+-+;+>+,+              ",
"                  '+)+!+~+{+]+                  ",
"                    ^+/+(+_+                    ",
"                      :+<+                      ",
"                                                ",
"                                                "};
