/* XPM */
const char * left_xpm[] = {
"24 24 213 2",
"  	c None",
". 	c #0037AD",
"+ 	c #0E4DBB",
"@ 	c #1654C3",
"# 	c #0747B7",
"$ 	c #85B6F6",
"% 	c #1F5ECA",
"& 	c #0349B5",
"* 	c #84B3F1",
"= 	c #D8E9FF",
"- 	c #215FCA",
"; 	c #014AB7",
"> 	c #7AACEA",
", 	c #D5E7FF",
"' 	c #D2E5FF",
") 	c #2260CA",
"! 	c #0033AA",
"~ 	c #0030A8",
"{ 	c #002BA5",
"] 	c #0026A3",
"^ 	c #0021A0",
"/ 	c #001D9E",
"( 	c #00189B",
"_ 	c #001499",
": 	c #001097",
"< 	c #004DB9",
"[ 	c #689DE2",
"} 	c #CAE1FF",
"| 	c #CFE3FF",
"1 	c #CCE1FF",
"2 	c #A2CAFD",
"3 	c #99C5FD",
"4 	c #93BFFD",
"5 	c #8BBBFD",
"6 	c #84B7FD",
"7 	c #7EB3FC",
"8 	c #7DACFB",
"9 	c #7BA8F9",
"0 	c #79A2F8",
"a 	c #3F69E9",
"b 	c #000F9A",
"c 	c #0052BD",
"d 	c #558ED9",
"e 	c #C1DDFF",
"f 	c #C5DDFF",
"g 	c #C4DDFF",
"h 	c #C4DCFF",
"i 	c #C3DCFF",
"j 	c #C2DBFF",
"k 	c #C1DBFF",
"l 	c #C1DAFF",
"m 	c #C0DAFF",
"n 	c #AFCCFE",
"o 	c #0018AE",
"p 	c #377BCF",
"q 	c #B9D7FF",
"r 	c #BCD8FF",
"s 	c #BBD7FF",
"t 	c #BAD7FF",
"u 	c #BAD6FF",
"v 	c #B9D6FF",
"w 	c #B8D6FF",
"x 	c #B8D5FF",
"y 	c #B7D5FF",
"z 	c #B6D4FF",
"A 	c #9CBEFD",
"B 	c #246CCA",
"C 	c #AFD2FE",
"D 	c #B3D3FF",
"E 	c #B2D2FF",
"F 	c #B1D2FF",
"G 	c #B1D1FF",
"H 	c #B0D1FF",
"I 	c #AFD0FF",
"J 	c #AED0FF",
"K 	c #AECFFF",
"L 	c #ACCEFF",
"M 	c #7CACFC",
"N 	c #3570F6",
"O 	c #023BEE",
"P 	c #1361C5",
"Q 	c #A3CBFC",
"R 	c #A9CDFF",
"S 	c #A8CCFF",
"T 	c #A7CCFF",
"U 	c #A7CBFF",
"V 	c #A6CBFF",
"W 	c #A5CBFF",
"X 	c #A5CAFF",
"Y 	c #A3C9FF",
"Z 	c #74ADFE",
"` 	c #2575FA",
" .	c #0553F5",
"..	c #0245F1",
"+.	c #0038EE",
"@.	c #0A5AC1",
"#.	c #81B9F3",
"$.	c #9FC9FF",
"%.	c #9FC7FF",
"&.	c #9EC6FF",
"*.	c #9DC6FF",
"=.	c #9CC5FF",
"-.	c #7DB4FF",
";.	c #2E88FF",
">.	c #096AFC",
",.	c #075DF8",
"'.	c #0450F4",
").	c #0243F1",
"!.	c #0036ED",
"~.	c #085AC2",
"{.	c #77B4F3",
"].	c #91C8FF",
"^.	c #93C3FF",
"/.	c #95C1FF",
"(.	c #94C0FF",
"_.	c #93C0FF",
":.	c #83B8FF",
"<.	c #4998FF",
"[.	c #197DFF",
"}.	c #0A73FE",
"|.	c #0866FB",
"1.	c #0659F7",
"2.	c #044CF3",
"3.	c #0140F0",
"4.	c #0035ED",
"5.	c #0E5FC5",
"6.	c #74B2F8",
"7.	c #7EBCFF",
"8.	c #7DB9FF",
"9.	c #80B8FF",
"0.	c #82B8FF",
"a.	c #7FB5FF",
"b.	c #73AFFF",
"c.	c #57A2FF",
"d.	c #328CFF",
"e.	c #2282FF",
"f.	c #1379FF",
"g.	c #096EFD",
"h.	c #0761F9",
"i.	c #0555F6",
"j.	c #0348F2",
"k.	c #013CEF",
"l.	c #1464C9",
"m.	c #68ADFB",
"n.	c #6AAFFF",
"o.	c #62ABFF",
"p.	c #59A5FF",
"q.	c #4E9EFF",
"r.	c #4296FF",
"s.	c #358EFF",
"t.	c #2886FF",
"u.	c #0B74FF",
"v.	c #0868FB",
"w.	c #065CF8",
"x.	c #0244F1",
"y.	c #0037ED",
"z.	c #1969CD",
"A.	c #59A4FD",
"B.	c #54A2FF",
"C.	c #4C9DFF",
"D.	c #378FFF",
"E.	c #2B88FF",
"F.	c #1E80FF",
"G.	c #1077FF",
"H.	c #096DFD",
"I.	c #0762F9",
"J.	c #0556F6",
"K.	c #034AF3",
"L.	c #013FEF",
"M.	c #1F6DD6",
"N.	c #4699FF",
"O.	c #3F94FF",
"P.	c #2081FF",
"Q.	c #1479FF",
"R.	c #0A70FE",
"S.	c #065BF7",
"T.	c #0039EE",
"U.	c #004DBA",
"V.	c #1E6EDD",
"W.	c #318CFF",
"X.	c #1F80FF",
"Y.	c #147AFF",
"Z.	c #0A72FE",
"`.	c #0968FB",
" +	c #075EF8",
".+	c #0554F5",
"++	c #0349F2",
"@+	c #013EEF",
"#+	c #0016AA",
"$+	c #004AB7",
"%+	c #176DE4",
"&+	c #1B7EFF",
"*+	c #1278FF",
"=+	c #0760E5",
"-+	c #0550D5",
";+	c #0449D3",
">+	c #0342D0",
",+	c #023BCE",
"'+	c #0132CB",
")+	c #002BC8",
"!+	c #0027C6",
"~+	c #0025C5",
"{+	c #0020BB",
"]+	c #000C94",
"^+	c #0046B5",
"/+	c #0A68EB",
"(+	c #0A6FFD",
"_+	c #0349C9",
":+	c #0142B7",
"<+	c #075EED",
"[+	c #0245C8",
"}+	c #0140B9",
"|+	c #013FC0",
"                                                ",
"                      .                         ",
"                    + @                         ",
"                  # $ %                         ",
"                & * = -                         ",
"              ; > , ' ) ! ~ { ] ^ / ( _ :       ",
"            < [ } | 1 2 3 4 5 6 7 8 9 0 a b     ",
"          c d e f f g h i i j j j k l m n o     ",
"          p q r r s s t u v w x y y y z A o     ",
"        B C D E E F G H H I I J K L M N O o     ",
"      P Q R R S S S T U V W X Y Z `  ...+.o     ",
"    @.#.$.%.%.&.&.&.*.*.=.=.-.;.>.,.'.).!.o     ",
"    ~.{.].^././.(.(.(._.:.<.[.}.|.1.2.3.4.o     ",
"      5.6.7.8.9.0.a.b.c.d.e.f.g.h.i.j.k.4.o     ",
"        l.m.n.o.p.q.r.s.t.[.u.v.w.'.x.y.4.o     ",
"          z.A.B.C.r.D.E.F.G.H.I.J.K.L.4.4.o     ",
"          c M.N.O.s.E.P.Q.R.|.S.'.x.T.4.4.o     ",
"            U.V.W.t.X.Y.Z.`. +.+++@+4.4.4.#+    ",
"              $+%+&+*+=+-+;+>+,+'+)+!+~+{+]+    ",
"                ^+/+(+_+!                       ",
"                  :+<+[+                        ",
"                    }+|+                        ",
"                      .                         ",
"                                                "};
