/* XPM */
const char * right_xpm[] = {
"24 24 230 2",
"  	c None",
". 	c #0037AD",
"+ 	c #1955C3",
"@ 	c #0B4ABB",
"# 	c #2461CA",
"$ 	c #7EB2F6",
"% 	c #0445B7",
"& 	c #2763CA",
"* 	c #DFEDFF",
"= 	c #6EA6F1",
"- 	c #0248B5",
"; 	c #001097",
"> 	c #001499",
", 	c #00189B",
"' 	c #001D9E",
") 	c #0021A0",
"! 	c #0026A3",
"~ 	c #002BA5",
"{ 	c #0030A8",
"] 	c #0033AA",
"^ 	c #2964CA",
"/ 	c #DAE9FF",
"( 	c #5493EA",
"_ 	c #004AB7",
": 	c #12209E",
"< 	c #BCD0F2",
"[ 	c #DBE8FC",
"} 	c #DCE9FC",
"| 	c #D6E6FD",
"1 	c #CEE3FD",
"2 	c #C7DFFD",
"3 	c #C0DBFD",
"4 	c #BBD9FD",
"5 	c #B5D6FD",
"6 	c #B0D2FD",
"7 	c #D4E6FF",
"8 	c #D6E7FF",
"9 	c #C9E0FF",
"0 	c #397FE2",
"a 	c #004DB9",
"b 	c #384AB3",
"c 	c #DAEAFF",
"d 	c #D8E8FF",
"e 	c #D7E8FF",
"f 	c #D5E6FF",
"g 	c #D2E5FF",
"h 	c #D1E4FF",
"i 	c #D0E3FF",
"j 	c #CEE2FF",
"k 	c #CDE2FF",
"l 	c #CCE1FF",
"m 	c #CBE0FF",
"n 	c #B5D5FF",
"o 	c #216FD9",
"p 	c #0052BD",
"q 	c #3749B3",
"r 	c #D0E4FF",
"s 	c #CFE3FF",
"t 	c #CAE0FF",
"u 	c #C8DFFF",
"v 	c #C7DEFF",
"w 	c #C6DEFF",
"x 	c #C5DDFF",
"y 	c #C3DCFF",
"z 	c #C2DBFF",
"A 	c #C1DBFF",
"B 	c #C0DAFF",
"C 	c #91C0FE",
"D 	c #075ECD",
"E 	c #3347B3",
"F 	c #C5DEFF",
"G 	c #C4DCFF",
"H 	c #BED9FF",
"I 	c #BDD9FF",
"J 	c #BCD8FF",
"K 	c #BBD7FF",
"L 	c #BAD6FF",
"M 	c #B8D6FF",
"N 	c #98C4FF",
"O 	c #5FA6FF",
"P 	c #2B87FF",
"Q 	c #187BFB",
"R 	c #0258C9",
"S 	c #3045B3",
"T 	c #BBD8FF",
"U 	c #BAD7FF",
"V 	c #B7D5FF",
"W 	c #B6D4FF",
"X 	c #B5D4FF",
"Y 	c #B4D3FF",
"Z 	c #B2D2FF",
"` 	c #B1D2FF",
" .	c #98C6FF",
"..	c #66AAFF",
"+.	c #4296FF",
"@.	c #338DFF",
"#.	c #2484FF",
"$.	c #157AFF",
"%.	c #096DF7",
"&.	c #0155C4",
"*.	c #2C44B3",
"=.	c #B0D1FF",
"-.	c #AFD0FF",
";.	c #AECFFF",
">.	c #ADCFFF",
",.	c #ABCEFF",
"'.	c #AACDFF",
").	c #9DC8FF",
"!.	c #75B4FF",
"~.	c #58A4FF",
"{.	c #4A9BFF",
"].	c #3C92FF",
"^.	c #2D89FF",
"/.	c #1F80FF",
"(.	c #1077FF",
"_.	c #096DFD",
":.	c #065FEE",
"<.	c #0052C0",
"[.	c #2841B3",
"}.	c #A7CDFF",
"|.	c #A8CCFF",
"1.	c #A7CBFF",
"2.	c #A5CBFF",
"3.	c #A4CAFF",
"4.	c #A3C9FF",
"5.	c #9CC6FF",
"6.	c #80BAFF",
"7.	c #68AEFF",
"8.	c #5BA6FF",
"9.	c #4E9EFF",
"0.	c #348DFF",
"a.	c #2685FF",
"b.	c #187CFF",
"c.	c #0A73FE",
"d.	c #0968FB",
"e.	c #065CED",
"f.	c #0053C1",
"g.	c #243EB3",
"h.	c #88C0FF",
"i.	c #94C3FF",
"j.	c #98C5FF",
"k.	c #91C1FF",
"l.	c #82BBFF",
"m.	c #6EB2FF",
"n.	c #65ACFF",
"o.	c #509FFF",
"p.	c #4497FF",
"q.	c #3890FF",
"r.	c #2B88FF",
"s.	c #1E80FF",
"t.	c #096EFD",
"u.	c #0761F4",
"v.	c #0154C4",
"w.	c #1F3BB3",
"x.	c #6DB1FF",
"y.	c #70B3FF",
"z.	c #6BB0FF",
"A.	c #65ADFF",
"B.	c #5FA9FF",
"C.	c #56A3FF",
"D.	c #4D9DFF",
"E.	c #4397FF",
"F.	c #3990FF",
"G.	c #2182FF",
"H.	c #0A71FE",
"I.	c #0866F7",
"J.	c #0154C8",
"K.	c #1A39B3",
"L.	c #5CA7FF",
"M.	c #5EA8FF",
"N.	c #5FA8FF",
"O.	c #5DA7FF",
"P.	c #5AA6FF",
"Q.	c #55A3FF",
"R.	c #489AFF",
"S.	c #3F95FF",
"T.	c #368FFF",
"U.	c #2C89FF",
"V.	c #2282FF",
"W.	c #167BFF",
"X.	c #096AFA",
"Y.	c #0256CB",
"Z.	c #1535B3",
"`.	c #4B9CFF",
" +	c #4C9CFF",
".+	c #499BFF",
"++	c #4598FF",
"@+	c #3991FF",
"#+	c #318CFF",
"$+	c #2886FF",
"%+	c #1F81FF",
"&+	c #096BFC",
"*+	c #0356D4",
"=+	c #0F2EB0",
"-+	c #3A91FF",
";+	c #3B92FF",
">+	c #348EFF",
",+	c #2F8BFF",
"'+	c #2A87FF",
")+	c #2383FF",
"!+	c #1B7EFF",
"~+	c #1178FF",
"{+	c #0A72FE",
"]+	c #096AFC",
"^+	c #0456DA",
"/+	c #004DBA",
"(+	c #000D96",
"_+	c #1244C4",
":+	c #1651CF",
"<+	c #1754D0",
"[+	c #1656D2",
"}+	c #1556D3",
"|+	c #1358D4",
"1+	c #1159D5",
"2+	c #0D59D6",
"3+	c #0A59D7",
"4+	c #0862E6",
"5+	c #0A6EFD",
"6+	c #0867FB",
"7+	c #0557E0",
"8+	c #0049B7",
"9+	c #0349C9",
"0+	c #0863FA",
"a+	c #0455E6",
"b+	c #0045B5",
"c+	c #0245C8",
"d+	c #0553EA",
"e+	c #0041B6",
"f+	c #013EC0",
"g+	c #013EB8",
"                                                ",
"                        .                       ",
"                        + @                     ",
"                        # $ %                   ",
"                        & * = -                 ",
"      ; > , ' ) ! ~ { ] ^ / / ( _               ",
"    : < [ } | 1 2 3 4 5 6 7 8 9 0 a             ",
"    b c d e 8 f 7 g h i j k l m n o p           ",
"    q r s j l m t u v w x y z A B C D           ",
"    E F x G z A B H I J K L M N O P Q R         ",
"    S T K U M V W X Y Z `  ...+.@.#.$.%.&.      ",
"    *.` ` =.-.;.>.,.'.).!.~.{.].^./.(._.:.<.    ",
"    [.}.|.1.2.3.4.5.6.7.8.9.+.0.a.b.c.d.e.f.    ",
"    g.h.i.j.N k.l.m.n.8.o.p.q.r.s.(.t.u.v.      ",
"    w.x.y.y.m.z.A.B.C.D.E.F.^.G.$.H.I.J.        ",
"    K.L.M.N.O.P.Q.o.R.S.T.U.V.W.c.X.Y.          ",
"    Z.`.D.D. +.+++S.@+#+$+%+$.c.&+*+p           ",
"    =+-+].].;+q.>+,+'+)+!+~+{+]+^+/+            ",
"    (+_+:+<+[+}+|+1+2+3+4+5+6+7+8+              ",
"                      ] 9+0+a+b+                ",
"                        c+d+e+                  ",
"                        f+g+                    ",
"                        .                       ",
"                                                "};
