/* XPM */
const char * up_xpm[] = {
"24 24 179 2",
"  	c None",
". 	c #000392",
"+ 	c #000698",
"@ 	c #617CE9",
"# 	c #010B9F",
"$ 	c #7D96F1",
"% 	c #F0F6FF",
"& 	c #00008D",
"* 	c #0617A9",
"= 	c #95ADF7",
"- 	c #E6F0FF",
"; 	c #0616A9",
"> 	c #000690",
", 	c #102FBB",
"' 	c #A6C1FB",
") 	c #DBEAFF",
"! 	c #A5BDFA",
"~ 	c #0F26B9",
"{ 	c #000994",
"] 	c #1E49CD",
"^ 	c #B0CDFE",
"/ 	c #D0E3FF",
"( 	c #AFC7FC",
"_ 	c #1B38C9",
": 	c #000993",
"< 	c #001198",
"[ 	c #2F69DF",
"} 	c #B5D3FF",
"| 	c #C5DDFF",
"1 	c #B4CFFD",
"2 	c #2A4ED8",
"3 	c #000F98",
"4 	c #01199E",
"5 	c #4384ED",
"6 	c #B4D4FF",
"7 	c #BAD7FF",
"8 	c #B3D1FE",
"9 	c #3B63E4",
"0 	c #00159D",
"a 	c #0425A7",
"b 	c #5C9AF6",
"c 	c #AED1FF",
"d 	c #B0D1FF",
"e 	c #AED0FF",
"f 	c #4D76ED",
"g 	c #001AA5",
"h 	c #001C9C",
"i 	c #0C36B4",
"j 	c #1040BD",
"k 	c #0F40BD",
"l 	c #75AFFD",
"m 	c #A5CAFF",
"n 	c #234EDD",
"o 	c #0024B7",
"p 	c #0021B0",
"q 	c #001F9F",
"r 	c #72ACFD",
"s 	c #9AC4FF",
"t 	c #8EBCFF",
"u 	c #4A8CFB",
"v 	c #1D65F7",
"w 	c #1858F4",
"x 	c #3469F4",
"y 	c #0E39CD",
"z 	c #00209E",
"A 	c #0023A2",
"B 	c #70ADFD",
"C 	c #8FBEFF",
"D 	c #89BAFF",
"E 	c #4F9AFF",
"F 	c #1172FD",
"G 	c #0864FA",
"H 	c #0659F7",
"I 	c #044FF4",
"J 	c #0244F1",
"K 	c #002ECA",
"L 	c #0028A4",
"M 	c #71ADFD",
"N 	c #84B7FF",
"O 	c #80B5FF",
"P 	c #60A4FF",
"Q 	c #2F89FF",
"R 	c #1B7EFF",
"S 	c #0E76FF",
"T 	c #096BFC",
"U 	c #0761F9",
"V 	c #0555F6",
"W 	c #034AF3",
"X 	c #0134CC",
"Y 	c #002CA6",
"Z 	c #6EADFD",
"` 	c #72AEFF",
" .	c #65A9FF",
"..	c #4F9DFF",
"+.	c #4095FF",
"@.	c #338DFF",
"#.	c #2685FF",
"$.	c #187CFF",
"%.	c #0A73FE",
"&.	c #0867FB",
"*.	c #065CF8",
"=.	c #0450F4",
"-.	c #0139CE",
";.	c #0031A9",
">.	c #70AFFA",
",.	c #6EB2FF",
"'.	c #63ABFF",
").	c #58A4FF",
"!.	c #4B9CFF",
"~.	c #3D93FF",
"{.	c #2F8BFF",
"].	c #2081FF",
"^.	c #1178FF",
"/.	c #096DFD",
"(.	c #023ED0",
"_.	c #0035AB",
":.	c #7DB8FA",
"<.	c #7BBAFF",
"[.	c #70B3FF",
"}.	c #55A2FF",
"|.	c #4799FF",
"1.	c #3890FF",
"2.	c #2886FF",
"3.	c #197DFF",
"4.	c #0A72FE",
"5.	c #0866FB",
"6.	c #065AF7",
"7.	c #0242D1",
"8.	c #003AAE",
"9.	c #89C0FA",
"0.	c #87C2FF",
"a.	c #6DB1FF",
"b.	c #5EA8FF",
"c.	c #4F9FFF",
"d.	c #3F95FF",
"e.	c #1F81FF",
"f.	c #0F76FF",
"g.	c #096AFC",
"h.	c #075EF8",
"i.	c #0246D4",
"j.	c #003EB1",
"k.	c #92C5FA",
"l.	c #92C9FF",
"m.	c #84C0FF",
"n.	c #75B6FF",
"o.	c #65ADFF",
"p.	c #55A3FF",
"q.	c #4598FF",
"r.	c #358EFF",
"s.	c #2484FF",
"t.	c #1479FF",
"u.	c #096EFD",
"v.	c #0349D5",
"w.	c #0042B3",
"x.	c #88B8F1",
"y.	c #99CCFF",
"z.	c #8CC5FF",
"A.	c #7CBBFF",
"B.	c #6BB0FF",
"C.	c #5BA6FF",
"D.	c #4A9BFF",
"E.	c #3991FF",
"F.	c #177CFF",
"G.	c #0A70FE",
"H.	c #0863FA",
"I.	c #024BD0",
"J.	c #1055BC",
"K.	c #3272CD",
"L.	c #3072CE",
"M.	c #2B6ECE",
"N.	c #256BCE",
"O.	c #2067CE",
"P.	c #1A63CE",
"Q.	c #1460CE",
"R.	c #0E5CCE",
"S.	c #0859CE",
"T.	c #0355CE",
"U.	c #024FC9",
"V.	c #0048B7",
"                                                ",
"                                                ",
"                      . .                       ",
"                    + @ @ +                     ",
"                  # $ % % $ #                   ",
"              & * = - - - - = ; &               ",
"            > , ' ) ) ) ) ) ) ! ~ >             ",
"          { ] ^ / / / / / / / / ( _ :           ",
"        < [ } | | | | | | | | | | 1 2 3         ",
"      4 5 6 7 7 7 7 7 7 7 7 7 7 7 7 8 9 0       ",
"    a b c d d d d d d d d d d d d d d e f g     ",
"  h i j j k l m m m m m m m m m m m n o o p h   ",
"          q r s s s s s s t u v w x y z         ",
"          A B C C C C D E F G H I J K           ",
"          L M N N O P Q R S T U V W X           ",
"          Y Z `  ...+.@.#.$.%.&.*.=.-.          ",
"          ;.>.,.'.).!.~.{.].^./.U V (.          ",
"          _.:.<.[.'.}.|.1.2.3.4.5.6.7.          ",
"          8.9.0.<.a.b.c.d.{.e.f.g.h.i.          ",
"          j.k.l.m.n.o.p.q.r.s.t.u.U v.          ",
"          w.x.y.z.A.B.C.D.E.2.F.G.H.I.          ",
"            J.K.L.M.N.O.P.Q.R.S.T.U.V.          ",
"                                                ",
"                                                "};
