/* XPM */
static const char *eq_h3[] = {
/* columns rows colors chars-per-pixel */
"310 55 2 1",
"  c black",
". c None",
/* pixels */
"......................................................................................................................................................................................................................................................................................................................",
"......................................................................................................................................................................................................................................................................................................................",
".............................................................................................................................................................                                                    .....................................................................................................",
"............................................................................................................................................................. ........................................................................................................................................................",
"............................................................................................................................................................. ........................................................................................................................................................",
"......................................................................................................................................................................................................................................................................................................................",
"......................................................................................................................................................................................................................................................................................................................",
"............................................................................................................................................................ .........................................................................................................................................................",
"............................................................................................................................................................ ......................... ...............................................................................................................................",
"............................................................................................................................................................ ....      .............. .................... ...........................................................................................................",
".................................................................................................................................................................. ....  ............ ..................... ..........................................................................................................",
".................................................................................................................................................................. ....  ........... ......      .......... ..........................................................................................................",
"........................................................................................................................................................... ...... ....  ........... ......  ...  ......... ..........................................................................................................",
"........................................................................................................................................................... ...... ....  ....    ... ......  ...  .......... .........................................................................................................",
"........................................................................................................................................................... ...... ...  .... ... ... ...... .... ........... .........................................................................................................",
"........................................................................................................................................................... ......     .....      .. .....  .   .... ....... .........................................................................................................",
".................................................................................................................................................................. ..  ....  ....... .....  .  ..... ....... .........................................................................................................",
".......................................................................................................................................................... ....... ...  ...  ....... ..... ... ..... ....... .........................................................................................................",
".......................................................................................................................................................... ....... ...  .... ....... ....  ...  ............ .........................................................................................................",
".......................................................................................................................................................... ....... ....  ...  .. ... ....  ...  ... ..................................................................................................................",
".......................................................................................................................................................... ......   ....  ...   .... ....  ....  .. ....... ..........................................................................................................",
"................................................................................................................................................................................................... ....... ..........................................................................................................",
".........................................................................................................   ...   ................................................................... ............. ..................................................................................................................",
".........................................................................................................  ..... ........................................ ......................................... ...... ...........................................................................................................",
".........................................................................................................  ....  ........................................ ............................................... ............................................................................................................",
"......................................................................................................... .....  ........................................ ............................................................................................................................................................",
"........................................................................................................        ....  .......           ..............................................................................................................................................................................",
"........................................................................................................  ....  ...... ...............................................................................................................................................................................................",
"........................................................................................................ .....  ...... ......................... ....... ......                                                .......................................................................................................",
"........................................................................................................ .....  ..... .......           ........  ...... .............................................................................................................................................................",
".......................................................................................................  ..... ......  .........................  ...... .............................................................................................................................................................",
".......................................................................................................  ....  ....... .........................  ...... ............................. ...............................................................................................................................",
"...................................................................................................................... .......................... ..............      ............... .................... ...........................................................................................................",
"...................................................................................................................... .......................... ..... ......... ....  ............. ..................... ..........................................................................................................",
"................................................................................................................... ............................. ..... ......... ....  ............ ......      .......... ..........................................................................................................",
".................................................................................................................................................  .... ......... ....  ............ ......  ...  ......... ..........................................................................................................",
".................................................................................................................................................  .... ......... ....  ....    .... ......  ...  .......... .........................................................................................................",
".................................................................................................................................................. .............. ...  .... ... .... ...... .... ........... .........................................................................................................",
".................................................................................................................................................. ..............     .....      ... .....  .   ............ .........................................................................................................",
".................................................................................................................................................. ... .......... ..  ....  ........ .....  .  ............. .........................................................................................................",
".................................................................................................................................................. ... .......... ...  ...  ........ ..... ... ..... . ..... .........................................................................................................",
"..................................................................................................................................................  .. .......... ...  .... ........ ....  ...  .... ....... .........................................................................................................",
"..................................................................................................................................................  ............. ....  ...  .. .... ....  ...  ...  .................................................................................................................",
"................................................................................................................................................... ............   ....  ...   ..... ....  ....  .. ....... ..........................................................................................................",
"................................................................................................................................................... . ............................................. ....... ..........................................................................................................",
"................................................................................................................................................... . ............................... ............. ..................................................................................................................",
"................................................................................................................................................... . .................................................... ...........................................................................................................",
"...................................................................................................................................................   ................................................... ............................................................................................................",
"...................................................................................................................................................  .................................................................................................................................................................",
".................................................................................................................................................... .................................................................................................................................................................",
".................................................................................................................................................... .................................................................................................................................................................",
".................................................................................................................................................... .................................................................................................................................................................",
"......................................................................................................................................................................................................................................................................................................................",
"......................................................................................................................................................................................................................................................................................................................",
"......................................................................................................................................................................................................................................................................................................................"
};
