/* XPM */
static const char *eq_pu_swtube[] = {
/* columns rows colors chars-per-pixel */
"310 55 2 1",
"  c black",
". c None",
/* pixels */
"......................................................................................................................................................................................................................................................................................................................",
"......................................................................................................................................................................................................................................................................................................................",
"......................................................................................................................................................................................................................................................................................................................",
"......................................................................................................................................................................................................................................................................................................................",
"......................................................................................................................................................................................................................................................................................................................",
"......................................................................................................................................................................................................................................................................................................................",
"......................................................................................................................................................................................................................................................................................................................",
"................................................................................................................................................................... ..................................................................................................................................................",
".................................................................................................................................................................. .............. ........................................................ ............................................................. .............",
".................................................................................................................................................................. ......... . ... ...................................................... .......................................  ...................... ............",
"..............................................................................................................................................       ............ ......... .. ... ..................................................... ........................................ ........................ ...........",
"............................................................................................................................................  ..... ............. ......... ...... ....................................................  ........................................ ......................... ..........",
"...........................................................................................................................................  .................... ........  ....... ................................................... ......................................... ......................... ..........",
"........................................................................................................................................... ..................... .......    ...... .................................................. .........................................  .......................... .........",
"..........................................................................................................................................  ......  ... ......... ........ ........ .................................................. ..................................... ... ............ .............. .........",
"..........................................................................................................................................  ...... .... ......... ........ ........ .................................................  ....................................  ... ............................ ........",
"..........................................................................................................................................  ...... .... ......... .......  ........ ................................................. ..................................... ...  ............................ ........",
"..........................................................................................................................................  .....  ........ . ... ....... ......... ................................................. ....................................  ... ... .. .. ..  .... .......... ........",
"........................................................... ............................................................................... .....  ... .... ..... ....... ..........................................................  ....................................  ..  ... .. .. .. .. .. ..........  .......",
".......................................................... .............. ..................................................................     ..... ...  ..... ....... ........ .................................................  ........    .........................  ..  .. .. .. .. .. .............. .......",
".......................................................... ......... . ... ........................................................................... ... .............. ........ ................................................. ........ ..   .................. . ........... .. .. .. . ............... .......",
"..........   ...   ...................................... ......... .. ... ............................................. ............................. ... ....... ..... ........................................................... ............  ................. .. ................ ... . ............... .......",
"..........  ..... ....................................... ......... ...... ............................................. ............................. ... ........... .......... .........................  ....................... ............. ................. ............. .. ..  .. .. .............. .......",
"..........  ....  ....................................... ........  ....... .................................................................................................... ..........................   ... . ...  .  ........ ............. ...        .....  .........................................  ......",
".......... .....  ....................................... .......    ...... ...........................................  ..................................................................................  ... ... ..  ..  ....... ............ ...... .  ......    ........................................  ......",
".........        ....  .  ...  ...  ..................... ........ ........ ..........           ......................  ..................................................................................  ... ... ..  ... ......  ............ ...... . ........ ..........................................  ......",
".........  ....  ..... .. ...  .......................... ........ ........ ............................         ...... ...................................................................................  ......  ..  ... ......  ........... ...... .. ........ ..........................................  ......",
"......... .....  .... ... ... .... ...................... .......  ........ ........................................... ....                                                                      .........  ...  .. ..  ... ......  .......... ....... .. .......  ......                           .........  ......",
"......... .....  .... ... ... .... ........  .. .. .. ... ....... ......... ..........           ...................... ...................................................................................  ... ... ..  ... ......  .................. .. ....... ...........................................  ......",
"........  ..... .....    .... ............ .... .. ...... ....... ....................................................  ...................................................................................  ... ..  ..  ... ....... ......... ......  ...   ..... ...........................................  ......",
"........  ....  ..... ......  ............. ... .. ...... ....... ........ ........................................... ............................ ..................... ..................................  ..   .  .  ..  ....... ........      ..  ...  ...... ...........................................  ......",
"....................  ...... .... .........  ..  . .............. ........ ........................................... ......      ............... ..................... .............. ..... ...................................... ............................. ...........................................  ......",
".................... .......  .............. ..  .  ...... ..... .................................................. . ........ ....  ............. ..................... ......... . ... ..... ..................................... ............................ ............................................ .......",
".................... ........   ... ..... . .................. .......... ......................................... . ........ ....  ............ ......      ......... ......... .. ... ..... ..................................... .......................... .............................................. .......",
".................................... ................................... ..................................................... ....  ............ ......  ...  ........ ......... ...... ..... ..................................... ......................................................................... .......",
".............................................................................................................................. ....  ....    .... ......  ...  ........ ........  ....... ..... ....................................  ........................................................................ .......",
".............................................................................................................................. ...  .... ... .... ...... .... ......... .......    ...... ..... ..................................... ................................................. .. ..................  .......",
"..............................................................................................................................     .....      ... .....  .   .......... ........ ........ ..... ..................................... ................................................ ... .................. ........",
".............................................................................................................................. ..  ....  ........ .....  .  ........... ........ ........ ..... ..................................... ............................................... ....................... ........",
".............................................................................................................................. ...  ...  ........ ..... ... ..... . ... .......  ........ ..... ...................................... .............................................. ......................  ........",
".............................................................................................................................. ...  .... ........ ....  ...  .... ..... ....... ......... ..... ...................................... .............................................. ...................... .........",
".............................................................................................................................. ....  ...  .. .... ....  ...  ...  ..... ....... ....................................................... ............................................. .....................  .........",
".............................................................................................................................   ....  ...   ..... ....  ....  .. ...... ....... ........ ..... ........................................ .............................................   ................... ..........",
"................................................................................................................................................................ .............. ........ ..... ......................................... ................................................................. ...........",
".................................................................................................................................................. ............. ....... ..... .......................................................... ................................................................ ...........",
"............................................................................................................................................................................ .......... ..... ........................................... ............................................................... ............",
"...................................................................................................................................................................................... ..... ............................................. ............................................................. .............",
"......................................................................................................................................................................................................................................................................................................................",
"......................................................................................................................................................................................................................................................................................................................",
"......................................................................................................................................................................................................................................................................................................................",
"......................................................................................................................................................................................................................................................................................................................",
"......................................................................................................................................................................................................................................................................................................................",
"......................................................................................................................................................................................................................................................................................................................",
"......................................................................................................................................................................................................................................................................................................................",
"......................................................................................................................................................................................................................................................................................................................"
};
